<?xml version="1.0" encoding="UTF-8"?>
<!-- Created with Inkscape (http://www.inkscape.org/) -->
<svg width="200" height="200" version="1.1" viewBox="0 0 52.917 52.917" xmlns="http://www.w3.org/2000/svg" xmlns:xlink="http://www.w3.org/1999/xlink">
 <defs>
  <linearGradient id="linearGradient5914" x1="26.458" x2="26.458" y2="52.917" gradientUnits="userSpaceOnUse">
   <stop stop-color="#00eaff" offset="0"/>
   <stop stop-color="#af00ff" offset="1"/>
  </linearGradient>
 </defs>
 <path d="m26.425 0.0020671c-0.68258 0.0041907-1.3587 0.14031-1.9911 0.40204-1.977 0.81864-3.2665 2.7473-3.2675 4.887v16.979c-5.44e-4 0.07721-0.0028 0.1544-0.0067 0.23151-0.0048 0.09216-0.01206 0.18417-0.0217 0.27595-0.08728 0.83056-0.3699 1.6287-0.82476 2.3291-0.02516 0.03875-0.05083 0.07716-0.077 0.11524-0.02621 0.03807-0.05291 0.0758-0.0801 0.11317-0.02558 0.03529-0.05159 0.07026-0.07803 0.1049l-0.0047 0.0062-0.0057 0.0072c-0.02629 0.03409-0.05299 0.06785-0.0801 0.10129-0.02464 0.03025-0.04962 0.06022-0.07493 0.08992-0.0045 0.0055-0.0089 0.01104-0.01344 0.01654-0.0075 0.0088-0.01513 0.01758-0.02274 0.02635-0.02265 0.02623-0.04556 0.05225-0.06873 0.07803-0.0051 0.0057-0.01034 0.01137-0.0155 0.01705-0.0082 0.0088-0.0165 0.0176-0.02481 0.02636-0.02052 0.02227-0.04111 0.04474-0.06201 0.06666-0.05841 0.06126-0.11805 0.12091-0.17932 0.17932-0.02192 0.0209-0.04439 0.04149-0.06666 0.06201-0.0089 0.0082-0.01744 0.0167-0.02635 0.02481-0.0057 0.0052-0.01136 0.01035-0.01705 0.0155-0.02574 0.0232-0.05183 0.04604-0.07803 0.06873-0.0088 0.0076-0.01755 0.01519-0.02636 0.02274-0.0054 0.0046-0.01111 0.0088-0.01654 0.01344-0.0297 0.02531-0.05967 0.05029-0.08992 0.07493-0.03344 0.02711-0.0672 0.05381-0.10129 0.0801l-0.0072 0.0057c-2e-3 0.0016-0.0042 0.0031-0.0062 0.0047-0.03465 0.02644-0.06962 0.05245-0.1049 0.07803-0.03737 0.02719-0.0751 0.0539-0.11317 0.0801-0.03808 0.02617-0.07649 0.05184-0.11524 0.077-0.70039 0.45485-1.4985 0.73748-2.3291 0.82476-0.09178 0.0096-0.1838 0.01687-0.27595 0.0217-0.09225 0.0048-0.18461 0.0072-0.27699 0.0072-0.12829-1.61e-4 -0.25653-5e-3 -0.38447-0.01447-0.0012-8.8e-5 -0.0024 8.9e-5 -0.0036 0l-0.0052-5.16e-4c-0.12378-0.0094-0.24719-0.02322-0.37-0.04134-0.0076-0.0011-0.01516-2e-3 -0.02274-0.0031-0.1236-0.01872-0.24649-0.04182-0.36845-0.06925-3.29e-4 -7.3e-5 -7.39e-4 7.4e-5 -1e-3 0l-1e-3 -5.16e-4c-0.12131-0.02728-0.24162-0.05882-0.3607-0.09457-0.0077-0.0023-0.01553-0.0044-0.02325-0.0067-0.12082-0.03672-0.24024-0.07773-0.35812-0.12299-1.9503-1.0703-3.5512-3.0274-4.9434-4.4462-0.99226-0.99274-2.3383-1.5506-3.7419-1.5508-1.4031 6.21e-4 -2.7485 0.55844-3.7403 1.5508-2.0657 2.0664-2.0657 5.4159 0 7.4822l21.166 21.168c0.18248 0.18017 0.37781 0.34683 0.58446 0.49868 0.06597 0.04631 0.133 0.09111 0.20102 0.13436 0.14648 0.10022 0.29791 0.19301 0.45372 0.27802 0.08177 0.04316 0.16465 0.08417 0.24856 0.12299 0.15288 0.07204 0.30912 0.1367 0.46819 0.19379 0.08705 0.03211 0.17493 0.06191 0.26355 0.0894 0.17091 0.05023 0.34425 0.0918 0.51935 0.12454 0.07767 0.01726 0.15572 0.03277 0.23409 0.04651 0.50972 0.07484 1.0276 0.07484 1.5374 0 0.07577-0.01334 0.15123-0.02833 0.22634-0.04496 0.17845-0.03327 0.35508-0.0757 0.52917-0.12712 0.08582-0.02677 0.17094-0.05572 0.25528-0.08682 0.15995-0.05718 0.31706-0.12202 0.47077-0.1943 0.0855-0.03943 0.16994-0.08113 0.25321-0.12506 0.15216-0.08328 0.30013-0.174 0.44338-0.27182 0.07139-0.04516 0.14169-0.09203 0.21084-0.14056 0.20608-0.15157 0.40089-0.31789 0.58291-0.49764l21.168-21.168c2.0654-2.0665 2.0654-5.4157 0-7.4822l-21.168-21.166c-0.92889-0.92833-2.1698-1.4781-3.4814-1.5425-0.097658-0.0048094-0.19549-0.0067998-0.293-0.0062012zm7.9711 13.227a5.2917 5.2917 0 0 1 5.2917 5.2917 5.2917 5.2917 0 0 1-5.2917 5.2917 5.2917 5.2917 0 0 1-5.2917-5.2917 5.2917 5.2917 0 0 1 5.2917-5.2917zm0 15.875a5.2917 5.2917 0 0 1 5.2917 5.2917 5.2917 5.2917 0 0 1-5.2917 5.2917 5.2917 5.2917 0 0 1-5.2917-5.2917 5.2917 5.2917 0 0 1 5.2917-5.2917z" color="#000000" fill="url(#linearGradient5914)"/>
</svg>
