<?xml version="1.0" encoding="UTF-8"?>
<!-- Created with Inkscape (http://www.inkscape.org/) -->
<svg width="200" height="200" version="1.1" viewBox="0 0 52.917 52.917" xmlns="http://www.w3.org/2000/svg" xmlns:xlink="http://www.w3.org/1999/xlink">
 <defs>
  <linearGradient id="linearGradient3253" x2="52.917" y2="52.917" gradientUnits="userSpaceOnUse">
   <stop stop-color="#00ebff" offset="0"/>
   <stop stop-color="#9500ff" offset="1"/>
  </linearGradient>
 </defs>
 <path d="m6.6146 0c-3.6645 0-6.6146 2.9501-6.6146 6.6146v39.687c0 3.6645 2.9501 6.6146 6.6146 6.6146h39.687c3.6645 0 6.6146-2.9501 6.6146-6.6146v-39.687c0-3.6645-2.9501-6.6146-6.6146-6.6146a6.6146 5.9531 0 0 0-5.286 2.3812h-0.005685l-15.875 19.05-0.002583-0.003618a6.6146 5.9531 0 0 1-5.2891 2.3849 6.6146 5.9531 0 0 1-6.6146-5.9531v-11.906a6.6146 5.9531 0 0 0-6.6146-5.9531zm33.073 19.844a6.6146 6.6146 0 0 1 6.6146 6.6146 6.6146 6.6146 0 0 1-6.6146 6.6146 6.6146 6.6146 0 0 1-6.6146-6.6146 6.6146 6.6146 0 0 1 6.6146-6.6146zm-13.229 13.229a6.6146 6.6146 0 0 1 6.6146 6.6146 6.6146 6.6146 0 0 1-6.6146 6.6146 6.6146 6.6146 0 0 1-6.6146-6.6146 6.6146 6.6146 0 0 1 6.6146-6.6146z" fill="url(#linearGradient3253)" stroke-width="0"/>
</svg>
